# xmcd
#
# Track frame offsets: 
#        150
#        12452
#        29495
#        41486
#        56325
#        75672
#        91109
#        106964
#        121145
#
# Disc length: 1840 seconds
#
# Revision: 0
# Processed by: cddbd v1.5.2PL0 Copyright (c) Steve Scherf et al.
# Submitted via: ExactAudioCopy v1.0b3
#
DISCID=63072e09
DTITLE=Uwe Kotteck, Waymore Clayton and Co - Countrymusik im Karl-May-Sa
DTITLE=loon
DYEAR=1900
DGENRE=Folk/Rock
TTITLE0=Im Karl-May-Saloon
TTITLE1=Geronimo
TTITLE2=Machu Picchu
TTITLE3=Komm zu mir ans Feuer
TTITLE4=Countrylady
TTITLE5=Es lebt sich gut in Radebeul
TTITLE6=Schnell wie der Wind
TTITLE7=Wer träumt nicht davon frei zu sein
TTITLE8=Der Wirt vom Karl-May-Saloon
EXTD=
EXTT0=
EXTT1=
EXTT2=
EXTT3=
EXTT4=
EXTT5=
EXTT6=
EXTT7=
EXTT8=
PLAYORDER=
